<?xml version="1.0" standalone="no"?>
<!DOCTYPE svg PUBLIC "-//W3C//DTD SVG 1.1//EN" "http://www.w3.org/Graphics/SVG/1.1/DTD/svg11.dtd" >
<!--
2013-9-30: Created.
-->
<svg>
<metadata>
Created by iconfont
</metadata>
<defs>

<font id="iconfont" horiz-adv-x="1024" >
  <font-face
    font-family="iconfont"
    font-weight="500"
    font-stretch="normal"
    units-per-em="1024"
    ascent="896"
    descent="-128"
  />
    <missing-glyph />
    
    <glyph glyph-name="wode1" unicode="&#58929;" d="M1016.83-48.128c0-21.504-17.408-38.912-38.912-38.912-21.504 0-38.912 17.408-38.912 38.912v20.992c0 97.28-198.144 235.008-425.472 235.008-180.736 0-428.544-115.712-428.544-230.912v-25.088c0-21.504-17.408-38.912-38.912-38.912S7.166-69.632 7.166-48.128v48.64c0 58.368 86.528 207.872 322.56 263.168-84.992 58.368-141.312 156.16-141.312 267.264 0 178.688 144.896 323.584 323.584 323.584 178.688 0 323.584-144.896 323.584-323.584 0-109.056-54.272-205.312-137.216-264.192 238.592-53.248 318.464-210.432 318.464-266.24v-48.64zM757.76 531.456c0 135.68-110.08 245.76-245.76 245.76s-245.76-110.08-245.76-245.76S376.32 285.696 512 285.696s245.76 110.08 245.76 245.76z"  horiz-adv-x="1024" />

    
    <glyph glyph-name="shouye" unicode="&#59118;" d="M992.335 448c-6.4 0-12.8 1.6-19.2 6.4L512.335 792l-460.8-337.6c-14.4-11.2-33.6-8-44.8 6.4-11.2 14.4-8 33.6 6.4 44.8l480 352c11.2 8 27.2 8 38.4 0l480-352c14.4-11.2 17.6-30.4 6.4-44.8-6.4-8-16-12.8-25.6-12.8zM832.335-64h-192c-17.6 0-32 14.4-32 32V320h-192v-352c0-17.6-14.4-32-32-32h-192c-52.8 0-96 43.2-96 96V416c0 17.6 14.4 32 32 32s32-14.4 32-32v-384c0-17.6 14.4-32 32-32h160V352c0 17.6 14.4 32 32 32h256c17.6 0 32-14.4 32-32v-352h160c17.6 0 32 14.4 32 32V416c0 17.6 14.4 32 32 32s32-14.4 32-32v-384c0-52.8-43.2-96-96-96z"  horiz-adv-x="1024" />

    
    <glyph glyph-name="bangong" unicode="&#58940;" d="M724.9664 96.6656l62.6432-62.6432a37.12 37.12 0 0 0-52.48-52.4544l-110.5664 110.592a35.7888 35.7888 0 0 0-3.8144 4.5056H378.624l-114.7392-114.7392a37.12 37.12 0 0 0-52.4544 52.4544l62.4128 62.4128H148.1984c-30.6688 0-55.552 26.3936-55.552 58.9312V671.0016H37.0176C16.5632 670.976 0 687.5392 0 708.0448c0 20.48 16.5632 37.0432 37.0432 37.0432h926.336c20.48 0 37.0432-16.5632 37.0432-37.0432s-16.5632-37.0432-37.0432-37.0432H907.776v-515.3792c0-32.5376-24.9088-58.9568-55.5776-58.9568h-127.2576zM166.7328 671.0016v-500.224h666.9568V671.0016H166.7328zM352 819.2h250.6752c10.1888 0 18.5344-8.3456 18.5344-18.5344a18.5856 18.5856 0 0 0-18.5344-18.5088H352a18.5856 18.5856 0 0 0-18.5344 18.5088c0 10.1888 8.3456 18.5344 18.5344 18.5344z m-73.984-557.312a37.12 37.12 0 0 0-52.48 52.48l172.544 172.5184a37.12 37.12 0 0 0 52.48 0l61.2352-61.3632 176.7936 176.7936a37.12 37.12 0 0 0 52.48-52.4544l-203.1104-202.9568a37.12 37.12 0 0 0-52.4544 0l-61.1328 61.2352-146.3552-146.2272z"  horiz-adv-x="1024" />

    
    <glyph glyph-name="tuandui" unicode="&#58882;" d="M637.81973333 411.17973333c47.6992 37.22986667 78.51733333 94.90986667 78.51733334 159.71626667 0 112.01066667-91.72266667 203.14986667-204.50133334 203.14986667s-204.50133333-91.14026667-204.50133333-203.14986667c0-64.8064 30.81173333-122.48533333 78.51626667-159.71626667-125.71946667-49.90506667-214.84266667-171.88266667-214.84266667-314.304v-67.69813333c0-18.72426667 15.248-33.86666667 34.07253333-33.86666667h613.504c18.82986667 0 34.0736 15.1424 34.0736 33.86666667V96.87466667000001c0.00106667 142.4768-89.12213333 264.40106667-214.8384 314.30506666zM363.89546667 571.16373333c0 81.06133333 66.34453333 146.95893333 147.94026666 146.95893334 81.59146667 0 147.9392-65.89866667 147.9392-146.95893334 0-81.04106667-66.34666667-146.95893333-147.9392-146.95893333-81.59573333 0-147.94026667 65.8912-147.94026666 146.95893333z m437.50933333-520.29866666h-579.168v35.96053333c0 158.62186667 129.90933333 287.68533333 289.62453333 287.68533333 159.65866667 0 289.54346667-129.06346667 289.54346667-287.68533333v-35.96053333zM247.6928 379.78666667000005l6.656 1.58826666c14.29333333 4.74986667 24.47466667 17.21173333 24.47466667 31.84853334 0 14.13653333-9.51893333 26.22506667-23.01333334 31.31733333-36.4928 16.46933333-60.03626667 52.6112-60.03626666 92.44053333 0 45.13173333 39.2192 83.1552 80.26773333 96.336 7.18613333 22.03626667 18.05653333 42.4288 31.8976 60.45973334a228.35093333 228.35093333 0 0 0 7.6128 11.69386666c-2.75626667 0.13226667-5.38133333 0.8192-8.21653333 0.8192-93.9552 0-170.42666667-75.9424-170.42666667-169.30986666 0-42.85333333 16.43733333-83.0272 44.33493333-113.57653334C92.51626667 377.74293333 34.656 286.41920000000005 34.656 183.10506667000004v-52.36906667c0-18.7232 15.24906667-33.86133333 34.0736-33.86133333h61.06666667c0 23.2 2.38933333 38.07466667 6.86933333 59.9552h-43.1424V183.10400000000004c0 93.58506667 63.32266667 173.90293333 154.17066667 196.68266667z m594.36053333 43.61813333c27.89866667 30.54933333 44.336 70.7232 44.336 113.57653333 0 93.36853333-76.448 169.33973333-170.42773333 169.33973334-2.83733333 0-5.46133333-0.69226667-8.2176-0.8224a227.61813333 227.61813333 0 0 0 7.6128-11.69386667c13.8432-18.03093333 24.71146667-38.42346667 31.87306667-60.46186667 41.0496-13.17546667 85.94133333-51.20426667 85.94133333-96.33493333 0-39.8304-23.5744-75.99786667-60.03626667-92.4416-13.49866667-5.088-23.01866667-17.1808-23.01866666-31.31733333 0-14.63786667 10.21226667-27.09973333 24.47573333-31.8432l6.656-1.59253334c90.87893333-22.80533333 154.17173333-103.09866667 154.17173333-196.7072v-26.27413333h-48.84266666c4.50666667-21.8816 6.86933333-36.7552 6.86933333-59.95626667h61.06666667c18.85546667 0 34.07466667 15.13813333 34.07466666 33.86133334v52.36906666c0.05546667 103.31306667-57.80586667 194.6368-146.5344 240.29866667z m0 0"  horiz-adv-x="1024" />

    
    <glyph glyph-name="xiuxianyule" unicode="&#58921;" d="M738.569 551.877l-255.157-236.34v-217.912c104.52-3.9 182.13-26.033 182.13-52.845 0-29.543-94.088-27.593-214.598-27.593-120.608 0-216.157-1.95-216.157 27.593 0 26.715 78.195 48.75 182.227 52.748v217.718l-255.45 236.632c-12.772 11.797-12.772 31.005 0 42.803h577.005c12.773-11.798 12.773-31.005 0-42.803M722.774 362.63c-6.142 0-12.09 0.195-18.135 0.78-19.013 1.852-33.053 18.72-31.297 37.733 1.755 19.11 18.623 33.15 37.83 31.297 3.803-0.292 7.702-0.488 11.602-0.488 66.982 0 121.582 54.405 121.582 121.388 0 66.885-54.6 121.29-121.582 121.29-30.127 0-58.988-11.017-81.315-31.102-14.332-12.773-36.27-11.7-49.14 2.535-12.772 14.235-11.603 36.173 2.632 48.945 35.1 31.59 80.535 49.043 127.822 49.043 105.3 0 191.002-85.605 191.002-190.71 0-105.203-85.702-190.71-191.002-190.71z"  horiz-adv-x="1024" />

    
    <glyph glyph-name="xiuxian" unicode="&#58961;" d="M197.231703 151.77781200000004L552.944534 151.77781200000004c3.274365 0 6.335074 1.602936 8.173135 4.279267 1.879974 2.718245 2.340001 6.115284 1.180734 9.198483-13.135286 35.46701-1.318742 440.240119 9.920213 703.599079 0.160498 3.819241-1.858507 7.361444-5.218744 9.199505-3.300945 1.838061-7.420736 1.619293-10.51927-0.5827C252.87547 665.119188 187.952461 167.99629700000003 187.332958 163.01676699999996c-0.357798-2.862386 0.523408-5.700238 2.398271-7.858273C191.632672 153.039307 194.373406 151.77781200000004 197.231703 151.77781200000004L197.231703 151.77781200000004zM197.231703 151.77781200000004M591.632751 164.45409400000005c-0.822936-3.017773-0.203434-6.255336 1.698008-8.718011 1.895309-2.499477 4.818009-3.957249 7.959478-3.957249l206.674511 0c3.157825 0 6.137774 1.500708 8.056595 4.080945 1.858507 2.538323 2.419739 5.839268 1.500708 8.835573-0.720708 2.340001-72.56047 234.768833-207.277657 513.442581-2.099765 4.381496-7.078272 6.598823-11.69387 5.256568-4.657511-1.298297-7.697774-5.758508-7.222414-10.615364C591.711467 669.077459 628.021859 296.976445 591.632751 164.45409400000005L591.632751 164.45409400000005zM591.632751 164.45409400000005M197.049738 45.454474000000005c4.781207 0 8.376569 0.416068 10.219741 0.715597 106.466457-3.936803 340.551384 50.188876 350.16798 52.405181 4.940683 1.159266 8.24265 5.8178 7.681418 10.898536-0.5827 5.016332-4.861968 8.814105-9.957015 8.814105L128.414826 118.28789300000005c-3.280499 0-6.37801-1.597825-8.259007-4.31607-1.838061-2.676331-2.238795-6.137774-1.078506-9.236307C139.53213 51.207870999999955 180.436652 45.454474000000005 197.049738 45.454474000000005L197.049738 45.454474000000005zM197.049738 45.454474000000005M1016.519235-9.174168000000009c-51.364499 67.758817-200.338415 81.980787-316.245635 81.980787-75.151951 0-134.75399-6.04168-137.09399-6.437302-194.104547-55.643767-485.792952-58.485707-542.295435-58.485707l-6.45877 0.021468L14.345667 7.905078000000003c-4.279267 0-8.078063-2.740735-9.477565-6.778744-1.356567-4.076856 0-8.574891 3.440997-11.198064 33.050339-25.011122 102.807714-37.689449 207.314459-37.689449 101.970466 0 234.288361 12.619034 353.971886 33.788425 46.364524 8.179269 100.629234 12.319506 161.23004 12.319506 142.675644 0 274.678675-23.151594 276.019908-23.371384 3.857065-0.678794 8.135311 1.117353 10.2729 4.615598C1019.25997-16.887276000000043 1019.041202-12.410708999999997 1016.519235-9.174168000000009L1016.519235-9.174168000000009zM1016.519235-9.174168000000009M709.173577-52.059870000000046c-29.553116 8.060684-60.660099 11.997488-95.088472 11.997488-51.626203 0-103.792171-8.996071-154.274442-17.692614-50.023267-8.639295-101.84677-17.53825-152.590745-17.53825-18.114816 0-34.932358 1.08464-51.364499 3.300945-4.940683 0.875072-9.599217-2.340001-10.977251-7.100763-1.341232-4.776096 0.955833-9.817985 5.453868-11.874814 7.902231-3.600473 53.404972-13.238536 97.653374-18.67707 13.515575-1.777746 27.571936-2.676331 41.808218-2.676331 50.145941 0 98.331147 10.993608 144.914438 21.614083 47.024917 10.69408 91.451197 20.812615 138.257346 20.812615 11.058012 0 21.993349-0.56021 32.468661-1.762412 5.337328-0.476383 9.936569 2.943146 10.914892 8.082152C717.351823-58.47672699999998 714.210354-53.46039499999995 709.173577-52.059870000000046L709.173577-52.059870000000046zM709.173577-52.059870000000046"  horiz-adv-x="1035" />

    
    <glyph glyph-name="meishi" unicode="&#58888;" d="M376.745527 856.879004l0-179.553399-29.629831 0L323.410807 860.31015l-13.331633 0-23.704888-182.984544-29.629831 0L256.744455 856.879004c-37.821397-25.564235-66.666352-157.470451-66.666352-316.78797l3.703345 0c0.121773-44.48926 30.284747-84.029812 76.296687-100.680027l0-120.809483c-3.315512-29.197996-6.650467-60.184731-10.058077-92.282776-17.839297-172.186617 7.964392-316.475861 56.725956-317.0264 48.762587 0.550539 74.567299 144.836713 56.723909 317.0264-3.403516 32.101115-6.740518 63.09399-10.05603 92.296079L363.413893 439.411007c46.010917 16.650215 76.174913 56.190767 76.295664 100.680027l3.705392 0C443.413925 699.408553 414.566924 831.314769 376.745527 856.879004zM824.311005 227.074971c-3.364631 32.17991-6.6607 63.24544-9.937326 92.517113L814.373679 828.188568c0 57.31845-171.249269 103.173824-171.249269-470.00863l79.038124 0 0-38.601156c-3.275603-29.268604-6.571672-60.33004-9.936303-92.504834-17.623379-172.59594 7.869225-317.227991 56.041364-317.780577C816.44485-90.15301999999997 841.939501 54.47698500000001 824.311005 227.074971z"  horiz-adv-x="1024" />

    
    <glyph glyph-name="meishi1" unicode="&#59148;" d="M662.1 319.9L689 12c2.4-27.2-25.4-46.8-50.2-35.4L209 173c-9.2 4.2-16.1 12-19.1 21.6L64.1 593.2c-0.6 2 1.4 3.9 3.3 3l138.1-58.8c1.3-0.6 1.9-2.2 1.1-3.4-2.8-4.7-5-9.5-6.6-14.6 0-0.1-0.1-0.2-0.1-0.3-2.9-14.3 0.8-27.9 11.3-40.8 10.5-12.9 24.4-21.1 41.8-24.7 15.6-3 30.1-1.3 43.6 4.9 12.7 5.9 21.5 14.3 26.5 25.3 0.5 1.2 1.9 1.7 3.1 1.2l136.1-58.9c1.4-0.6 1.9-2.4 0.9-3.6-4.9-6.4-8.2-12.8-9.8-19.2-3-15 0.7-28.6 11.2-40.9 10.5-12.3 24.4-20.2 41.8-23.8 16.8-3.6 32.2-1.8 46.3 5.4 13.2 6.7 21.5 16.3 25 28.8 0.4 1.4 1.9 2.1 3.2 1.6l59.4-24.8c12.3-5.1 20.6-16.5 21.8-29.7z m-221.2-79.3c4.8 16.8 1.8 33.1-9 49-10.8 15.9-26.1 26.5-45.8 31.9-5.3 1.8-10.3 2.7-15 2.7-0.2 0-0.3 0-0.5 0.1-10.1 2.3-19.5 2.3-28.1-0.1-8.6-2.4-15.9-6.5-21.8-12.4-0.1-0.1-0.3-0.2-0.4-0.3-11.9-7.2-19.6-17.3-23.2-30.4-4.8-17.4-1.8-33.9 9-49.4 10.8-15.6 26.1-26.1 45.8-31.5 9.6-3 19.3-4.2 29.2-3.6 9.9 0.6 18.9 2.7 27 6.3 8.1 3.6 15 8.7 20.7 15.3 5.6 6.6 9.7 14.1 12.1 22.4z m464.7 504.3c9-21.6 18.3-48.5 27.9-80.9 9.6-32.4 16.8-68.6 21.6-108.8 4.8-40.1 6.1-83.6 4-130.3-2.1-46.7-10.3-95.4-24.7-146.1-14.4-50.6-36.6-102.5-66.5-155.5-24.2-42.9-54.9-85.7-92.1-128.4-10.2-11.8-29.6-5.5-30.9 10.1l-28 322.2c-1.1 12.4 3.8 24.6 13 32.9 8.8 7.8 19.3 17.7 31.5 29.8 20.1 19.8 40.1 46 60.2 78.6 20.1 32.7 38.2 71.8 54.4 117.3 16.1 45.5 26 98.5 29.6 159.1z m-53.1 44.9c0-61.1-7-114.7-21.1-160.9-14.1-46.1-30.4-85.5-49-118.2S745 452 725.8 432.5c-18.5-18.7-32.5-32.1-42.1-40-0.7-0.6-1.6-0.7-2.4-0.4-3.9 1.6-12.3 5.2-25.2 10.7-14.7 6.3-33.4 14.4-56.2 24.3-22.8 9.9-48.7 21.1-77.7 33.7-29.1 12.6-59.5 25.8-91.2 39.5-31.8 13.8-63.8 27.6-96.2 41.3-32.4 13.8-63.2 27.1-92.6 40-29.4 12.9-56.5 24.6-81.3 35.1l-55 23.2c-2.2 0.9-1.9 4.2 0.5 4.7l147.4 29.5c1.5 0.3 2.8-0.8 2.8-2.3v-2.2c0-0.2 0-0.4 0.1-0.7 3.1-11.2 11.1-19.3 24.2-24.4 13.2-5.1 28.5-5.8 45.8-2.3 17.4 3.6 31.3 10.5 41.8 20.7 10.4 10.1 14.5 20.8 12.2 32.1 0 0.2-0.1 0.3-0.1 0.4l-0.7 1.6c-0.6 1.4 0.3 2.9 1.7 3.2l184.5 37.6c1.3 0.3 2.6-0.6 2.8-1.9l0.4-2.2c2.4-10.8 10.3-18.9 23.8-24.3 13.5-5.4 28.9-6.3 46.3-2.7 17.4 3.6 31.2 10.6 41.3 21.1 10.1 10.4 14 21 11.7 31.8 0 0.1 0 0.2-0.1 0.3-0.5 1.4 0.4 2.8 1.8 3.1l155.4 31.3c1.5 0.3 2.8-0.8 2.8-2.3v-2.2zM555 545.3c18.6 0 34.3 3.6 47.2 10.8 12.9 7.2 19.3 15.9 19.3 26.1 0 10.2-6.4 19-19.3 26.5s-28.6 11.2-47.2 11.2-34.2-3.7-46.7-11.2c-12.6-7.5-18.9-16.3-18.9-26.5s6.3-18.9 18.9-26.1c12.6-7.2 28.2-10.8 46.7-10.8z m0 0"  horiz-adv-x="1024" />

    
    <glyph glyph-name="fanhui" unicode="&#58971;" d="M736-64c-9 0-18.1 3.2-25 9.6L263 360.8c-13.8 12.8-13.8 33.6 0 46.4L711 822.4c13.8 12.8 36.2 12.8 50 0 13.8-12.8 13.8-33.6 0-46.4L338 384l423-392c13.8-12.8 13.8-33.6 0-46.4-6.9-6.4-16-9.6-25-9.6z"  horiz-adv-x="1024" />

    
    <glyph glyph-name="fanhui1" unicode="&#58883;" d="M736-64c-9 0-18.1 3.2-25 9.6L263 360.79999999999995c-13.8 12.8-13.8 33.6 0 46.4L711 822.4c13.8 12.8 36.2 12.8 50 0 13.8-12.8 13.8-33.6 0-46.4L337.99999999 384l423.00000001-392c13.8-12.8 13.8-33.6 0-46.4-6.9-6.4-16-9.6-25-9.6z"  horiz-adv-x="1024" />

    
    <glyph glyph-name="youjian" unicode="&#58954;" d="M250.551014 23.548316l405.834316 364.80064L250.244029 752.944939c-18.82842 17.293495-18.82842 45.331468 0 62.522634 18.726092 17.293495 49.219946 17.293495 67.946038 0l440.932947-395.806136c18.82842-17.293495 18.82842-45.331468 0-62.522634l-440.625962-396.010793c-18.726092-17.293495-49.219946-17.293495-67.946038 0-18.82842 17.191166-18.82842 45.22914 0 62.420306z"  horiz-adv-x="1024" />

    
    <glyph glyph-name="set" unicode="&#58915;" d="M825.606 248.462l-6.342-12.72 86.064-127.683 3.196 31.083-138.983-135.516 29.5 3.489-138.12 82.292-11.336-4.746c-8.059-3.374-16.262-6.456-24.541-9.221l-13.23-4.419-30.815-145.197 23.85 19.319-196.574 0 23.666-18.521-37.138 149.987-11.793 4.583c-7.357 2.86-14.648 5.979-21.817 9.335l-12.173 5.697-131.136-84.024 30.174-3.072-138.983 135.508 3.639-30.405 84.836 135.361-5.281 11.862c-3.668 8.239-7.010 16.651-9.999 25.168l-4.592 13.084-148.474 29.946 19.561-23.9v191.65l-18.796-23.733 153.484 36.122 4.754 11.629c3.43 8.392 7.217 16.675 11.326 24.775l6.429 12.673-81.273 122.451-3.16-30.809 138.161 136.787-29.775-3.534 133.375-80.699 11.425 4.773c6.618 2.765 13.341 5.335 20.123 7.695l12.479 4.342 36.123 145.884-23.666-18.521h196.556l-23.85 19.319 31.628-149.029 12.546-4.682c10.191-3.803 20.214-8.079 29.976-12.79l12.168-5.872 124.879 78.724-29.883 3.033 140.371-134.697-3.683 30.689-83.262-130.727 5.232-11.919c3.598-8.198 6.876-16.57 9.803-25.042l4.386-12.693 147.395-34.685-18.796 23.733v-191.65l19.56 23.9-154.548-31.174-4.971-12c-2.96-7.146-6.192-14.234-9.673-21.215zM857.804 260.346l4.821-23.9 161.375 32.552v230.914l-153.118 36.032-5.585-23.733 23.044 7.963c-3.357 9.714-7.114 19.312-11.241 28.715l-22.325-9.8 20.564-13.098 87.004 136.602-168.544 161.732-129.576-81.686 13.002-20.625 10.596 21.958c-11.117 5.364-22.523 10.231-34.121 14.559l-8.524-22.842 23.85 5.062-32.948 155.249h-235.386l-37.533-151.58 23.666-5.86-8.011 23.027c-7.716-2.685-15.364-5.609-22.896-8.755l9.398-22.497 12.621 20.86-139.046 84.13-165.917-164.267 84.501-127.314 20.314 13.483-21.743 11.031c-4.708-9.28-9.045-18.767-12.977-28.386l22.568-9.225-5.585 23.733-160.050-37.668v-230.913l154.441-31.15 4.82 23.9-23.005-8.074c3.427-9.763 7.257-19.404 11.463-28.852l22.273 9.916-20.659 12.948-88.389-141.029 166.937-162.762 136.127 87.222-13.153 20.528-10.336-22.082c8.156-3.818 16.45-7.366 24.824-10.621l8.832 22.725-23.666-5.86 38.683-156.226 235.404-0 32.019 150.872-23.85 5.062 7.724-23.125c9.423 3.147 18.754 6.654 27.924 10.493l-9.415 22.49-12.479-20.945 143.653-85.588 166.964 162.799-89.494 132.773-20.217-13.627 21.819-10.879c3.986 7.994 7.689 16.115 11.084 24.311l-22.525 9.331zM731.429 396.19c0 114.454-92.784 207.238-207.238 207.238-114.454 0-207.238-92.784-207.238-207.238 0-114.454 92.784-207.238 207.238-207.238 29.314 0 57.815 6.105 84.063 17.765 12.306 5.467 17.85 19.874 12.383 32.18-5.467 12.306-19.874 17.85-32.18 12.383-20.044-8.905-41.804-13.566-64.266-13.566-87.524 0-158.476 70.952-158.476 158.476 0 87.524 70.952 158.476 158.476 158.476 87.524 0 158.476-70.952 158.476-158.476 0-11.565-1.235-22.953-3.659-34.038-2.877-13.154 5.455-26.15 18.609-29.027 13.154-2.877 26.15 5.455 29.027 18.609 3.171 14.501 4.785 29.382 4.785 44.456z"  horiz-adv-x="1024" />

    
    <glyph glyph-name="book-empty" unicode="&#58880;" d="M886.702 788.108h-238.449c-55.654 0-105.151-26.829-136.253-68.23-31.106 41.402-80.607 68.23-136.261 68.23h-238.443c-37.558 0-68.13-30.554-68.13-68.13v-630.182c0-37.558 30.539-68.13 68.13-68.13h250.423c33.426-32.669 77.908-51.098 124.279-51.098 46.37 0 90.845 18.429 124.278 51.098h250.423c37.558 0 68.13 30.535 68.13 68.13v630.182c0.001 37.558-30.534 68.13-68.129 68.13v0zM907.86 103.958c0-18.005-14.594-32.601-32.601-32.601h-247.532c-10.506 0-20.49-4.603-27.338-12.667-22.531-26.469-54.757-41.682-88.389-41.682-33.634 0-65.861 15.213-88.386 41.682-6.855 8.063-16.832 12.667-27.344 12.667h-247.53c-18.005 0-32.601 14.594-32.601 32.601v605.108c0 18.006 14.594 32.601 32.601 32.601h219.31c59.534 0 120.074-48.758 120.074-108.697v-613.324c0 0 11.939-2.525 23.877-2.525s23.877 2.525 23.877 2.525v613.324c0 59.941 60.539 108.697 120.074 108.697h219.31c18.005 0 32.601-14.593 32.601-32.601v-605.108h-0.001zM907.86 103.958z"  horiz-adv-x="1024" />

    
    <glyph glyph-name="guanyu" unicode="&#58881;" d="M924.346349 558.205601c-22.540366 53.292764-54.806233 101.151771-95.897094 142.242631-41.091884 41.091884-88.949868 73.357751-142.244678 95.89914C631.015627 819.6910330000001 572.404742 831.526593 512 831.526593S392.984373 819.6910330000001 337.794399 796.348396c-53.293787-22.541389-101.151771-54.806233-142.243655-95.89914-41.09086-41.09086-73.355705-88.948845-95.897094-142.243655-23.343661-55.18895-35.17922-113.800859-35.17922-174.204577 0-60.404742 11.836583-119.015627 35.17922-174.205601 22.541389-53.293787 54.806233-101.151771 95.897094-142.242631 41.091884-41.091884 88.949868-73.356728 142.243655-95.89914 55.18895-23.342638 113.800859-35.17922 174.205601-35.17922 36.198433 0 73.330122 18.99768 116.324332 40.995693 54.974056 28.126594 117.284193 60.006675 192.182021 60.006675 14.19121 0 25.695219 11.504008 25.695219 25.695219s-11.504008 25.695219-25.695219 25.695219c-87.281879 0-158.426219-36.399001-215.59015-65.646116-37.0795-18.971074-69.101821-35.354206-92.916203-35.354206-218.429825 0-396.135132 177.705308-396.135132 396.134109S293.571199 780.135132 512 780.135132c218.427778 0 396.134109-177.706331 396.134109-396.135132 0-66.00018-16.549931-131.328048-47.861054-188.92279-6.77838-12.466939-2.165316-28.069289 10.301623-34.846646 12.466939-6.77838 28.071336-2.164293 34.846646 10.301623 35.395138 65.103764 54.103222 138.919956 54.103222 213.468836C959.526593 444.403718 947.69001 503.015627 924.346349 558.205601L924.346349 558.205601zM486.304781 384.002047L486.304781 157.08799c0-14.192234 11.504008-25.697265 25.695219-25.697265 14.19121 0 25.697265 11.504008 25.697265 25.697265L537.697265 384.002047c0 14.19121-11.504008 25.695219-25.697265 25.695219C497.80879 409.697265 486.304781 398.193257 486.304781 384.002047L486.304781 384.002047zM601.892333 553.932274c0 24.010857-9.350972 46.584991-26.329668 63.562665-16.978696 16.978696-39.550785 26.329668-63.562665 26.329668-24.01188 0-46.584991-9.350972-63.563688-26.329668-35.048237-35.049261-35.049261-92.076068 0-127.125329 16.978696-16.977673 39.551808-26.328645 63.563688-26.328645 24.010857 0 46.583968 9.350972 63.562665 26.328645C592.541361 507.346259 601.892333 529.920394 601.892333 553.932274L601.892333 553.932274zM539.224038 526.707213c-7.270591-7.271614-16.938788-11.275811-27.224038-11.275811-10.283204 0-19.951401 4.004197-27.221991 11.274788-15.010879 15.011902-15.010879 39.437198 0 54.448076 7.271614 7.271614 16.939811 11.275811 27.221991 11.275811 10.285251 0 19.952424-4.004197 27.225061-11.276834 7.271614-7.271614 11.276834-16.939811 11.276834-27.221991C550.500872 543.648047 546.495652 533.980873 539.224038 526.707213L539.224038 526.707213z"  horiz-adv-x="1024" />

    
    <glyph glyph-name="iconjia1" unicode="&#58884;" d="M902.947 324.97299999999996h-332.293v-332.346c0-32.387-26.267-58.628-58.655-58.628-32.387 0-58.654 26.241-58.654 58.628v332.346h-332.295c-32.414 0-58.654 26.241-58.654 58.628 0 32.375 26.243 58.628 58.654 58.628h332.293v332.346c0 32.375 26.267 58.628 58.654 58.628 32.388 0 58.655-26.254 58.655-58.628v-332.347h332.293c32.414 0 58.655-26.252 58.655-58.626-0.001-32.387-26.241-58.626-58.655-58.626z"  horiz-adv-x="1024" />

    
    <glyph glyph-name="banji" unicode="&#59015;" d="M820.7 768H735V800.8c0 17.3-14 31.3-31.3 31.3s-31.3-14-31.3-31.3V768H351.5V800.8c0 17.3-14 31.3-31.3 31.3s-31.3-14-31.3-31.3V768h-85.3c-77 0-139.5-62.5-139.5-139.5v-553.3c0-77 62.5-139.5 139.5-139.5h617c77 0 139.5 62.5 139.5 139.5V628.5c0 77.1-62.4 139.5-139.4 139.5z m-601.6-51.4H289v-45.3c0-17.3 14-31.3 31.3-31.3s31.3 14 31.3 31.3v45.3h320.8v-45.3c0-17.3 14-31.3 31.3-31.3s31.3 14 31.3 31.3v45.3h70.4c57.4 0 103.9-46.5 103.9-103.9v-58.5h-794v58.5c-0.1 57.4 46.4 103.9 103.8 103.9z m586.2-730.1H219.1c-57.4 0-103.9 46.5-103.9 103.9V503.3h794v-412.8c0-57.5-46.5-104-103.9-104zM725.2 391.4H299.9c-14.1 0-25.5-11.4-25.5-25.5s11.4-25.5 25.5-25.5h425.3c14.1 0 25.5 11.4 25.5 25.5-0.1 14.1-11.5 25.5-25.5 25.5zM725.2 244.6H299.9c-14.1 0-25.5-11.4-25.5-25.5s11.4-25.5 25.5-25.5h425.3c14.1 0 25.5 11.4 25.5 25.5-0.1 14.1-11.5 25.5-25.5 25.5z"  horiz-adv-x="1024" />

    
    <glyph glyph-name="fangzi" unicode="&#58886;" d="M640 0h192V426.624h42.667v-426.837c0-23.467-19.03-42.475-42.667-42.475H597.333V170.667H426.667v-213.334H192c-23.573 0-42.667 18.987-42.667 42.454V426.645H192V0h192V213.333h256V0zM100.032 389.867A21.333 21.333 0 1 0 70.635 420.8L466.283 796.65a66.688 66.688 0 0 0 91.434 0l395.67-375.85a21.333 21.333 0 1 0-29.398-30.933l-395.648 375.85a24.021 24.021 0 0 1-32.682 0l-395.606-375.85zM832 704H704a21.333 21.333 0 0 0 0 42.667h149.333a21.333 21.333 0 0 0 21.334-21.334V576A21.333 21.333 0 0 0 832 576V704z"  horiz-adv-x="1024" />

    
    <glyph glyph-name="banji1" unicode="&#59252;" d="M898.048 716.8H196.096c-56.32 0-101.376 38.4-101.376 85.504S140.288 887.808 196.096 887.808h603.648c17.408 0 31.744-12.288 31.744-26.624 0-14.848-14.336-26.624-31.744-26.624H185.856c-20.992 0-37.888-14.848-37.888-31.744 0-17.92 17.408-31.744 37.888-31.744h712.192c17.408 0 31.744-12.288 31.744-26.624-0.512-15.36-14.336-27.648-31.744-27.648z m0-836.608H196.096c-56.32 0-101.376 41.984-101.376 87.552 0 14.336 0 41.472 26.624 41.472s27.136-26.112 27.136-40.448c0-17.408 27.648-37.888 48.128-37.888H898.56c17.408 0 31.744-11.776 31.744-25.6-1.024-13.312-14.848-25.088-32.256-25.088zM120.832-50.176c-14.848 0-27.136 14.336-27.136 31.744V808.448c0 17.408 12.288 31.744 27.136 31.744s27.136-14.336 27.136-31.744V-17.92c-1.024-17.92-12.288-32.256-27.136-32.256z m782.336-69.632c-14.848 0-27.136 14.336-27.136 31.744V738.304c0 17.408 12.288 31.744 27.136 31.744s27.136-14.336 27.136-31.744v-826.368c-1.024-17.408-12.8-31.744-27.136-31.744z m-98.816 846.336c-14.848 0-27.136 11.264-27.136 25.088V862.72c0 13.824 12.288 25.088 27.136 25.088s27.136-11.264 27.136-25.088v-111.104c-0.512-13.824-11.776-25.088-27.136-25.088z m-109.568-225.28H314.88c-17.408 0-31.744 12.288-31.744 26.624 0 14.848 14.336 26.624 31.744 26.624h379.904c17.408 0 31.744-12.288 31.744-26.624 0-14.848-14.336-26.624-31.744-26.624zM512 358.4H314.88c-17.408 0-31.744 12.288-31.744 27.136s14.336 27.136 31.744 27.136H512c17.408 0 31.744-12.288 31.744-27.136-0.512-15.36-14.336-27.136-31.744-27.136z"  horiz-adv-x="1024" />

    
    <glyph glyph-name="wode" unicode="&#58887;" d="M875.507-40.258H124.998c-19.417 0-38.836 9.709-51.458 24.272l-0.97 0.97c-12.622 17.478-16.506 37.867-11.652 56.313 39.808 201.949 206.804 355.352 405.838 371.857 4.855 0.97 8.738 1.941 12.622 1.941h36.895l-4.855-48.545H492c-7.767 0-11.651 0-17.476-1.94h-2.912c-179.62-12.624-330.108-150.493-365.062-333.993-0.97-4.855-0.97-11.652 3.883-16.506l0.97-1.941c2.915-3.884 7.77-5.827 13.594-5.827h751.48c5.825 0 10.68 1.942 13.592 5.827 4.855 5.825 5.825 11.65 4.855 18.447-22.33 120.392-95.15 222.336-198.064 280.59l-0.97 0.971c-7.768 4.856-17.477 9.71-26.215 14.564-2.913 1.942-5.826 2.912-8.738 4.854l-13.593 5.826 19.418 43.69 13.592-5.825c9.709-3.883 19.419-9.708 28.157-13.592l11.65-5.826C836.67 289.847 917.254 175.282 943.47 41.296c4.854-19.418 0-39.807-14.563-57.283-13.593-15.534-33.982-24.272-53.4-24.272zM505.593 381.114c-122.334 0-223.308 100.973-223.308 223.307S383.259 827.73 505.593 827.73 728.9 726.755 728.9 604.422 626.956 381.114 505.594 381.114z m0 411.663c-104.858 0-188.356-84.469-188.356-188.356s84.47-188.355 188.356-188.355 188.355 84.47 188.355 188.355-84.47 188.356-188.355 188.356zM505.593 376.26c-126.218 0-228.163 101.944-228.163 228.161S379.375 832.585 505.593 832.585 733.755 730.639 733.755 604.42 630.839 376.26 505.593 376.26z m0 446.615c-120.392 0-218.454-98.061-218.454-218.454s98.062-218.453 218.454-218.453 218.453 98.062 218.453 218.453-98.06 218.454-218.453 218.454z m0-411.663c-106.8 0-193.21 86.41-193.21 193.21s86.41 193.21 193.21 193.21c106.8 0 193.21-86.41 193.21-193.21s-87.382-193.21-193.21-193.21z m0 376.71c-100.974 0-183.501-82.527-183.501-183.5 0-100.975 82.527-183.501 183.5-183.501s183.501 82.528 183.501 183.5c0 100.974-82.527 183.501-183.5 183.501z m-298.068-667.01c-1.941 0-4.854 0.97-6.796 1.941-6.796 3.884-9.71 12.622-5.826 19.419 85.44 166.025 270.883 197.093 278.65 198.064 7.768 0.97 15.534-3.884 16.506-11.651 0.97-7.768-3.884-15.534-11.652-16.506-1.94 0-178.646-30.097-257.29-182.529-2.911-5.826-7.767-8.738-13.592-8.738z m-33.01-84.47c-7.767 0-14.564 6.797-14.564 14.565 0 28.156 18.447 58.254 21.36 61.167 3.883 6.796 13.592 8.738 20.39 4.853 6.795-3.882 8.737-13.591 4.853-20.388-4.854-6.796-16.505-29.128-16.505-45.632-0.97-7.768-6.797-14.564-15.535-14.564z"  horiz-adv-x="1024" />

    
    <glyph glyph-name="set-copy" unicode="&#59253;" d="M825.606018 248.46171700000002L819.263571 235.74154499999997 827.207981 223.95529 905.327294 108.05819299999996 908.52362 139.14167899999995 769.540324 3.6261269999999968 799.04025 7.115003999999999 671.47766 83.11668099999997 660.919793 89.40704600000004 649.583401 84.66116299999999C641.524386 81.28732600000001 633.321491 78.20495800000003 625.041941 75.439663L611.811631 71.02085799999998 608.915804 57.376037999999994 580.996546-74.17648599999995 604.846304-54.85714299999995 408.272431-54.857140999999956 431.938677-73.37809700000003 397.841517 64.32706099999996 394.800523 76.60845200000006 383.007648 81.19193800000005C375.650317 84.05148199999996 368.359849 87.17072199999996 361.19018 90.52654299999995L349.017562 96.22403399999996 337.701214 88.97321599999998 217.88134 12.200015000000008 248.055031 9.128334999999993 109.071736 144.63627899999994 112.710251 114.23171200000002 190.651237 238.59058300000004 197.546671 249.59260600000005 192.26576 261.45445500000005C188.597667 269.693634 185.255827 278.10565999999994 182.266902 286.622118L177.674889 299.706315 164.082002 302.447895 29.201333 329.652282 48.761905 305.75259900000003 48.761905 497.40253 29.96636 473.669978 171.221091 506.913988 183.450436 509.792139 188.204044 521.4215770000001C191.634415 529.8137899999999 195.421037 538.096149 199.530538 546.196672L205.959792 558.869818 198.101254 570.70989 124.686421 681.320416 121.526273 650.511849 259.687038 787.298784 229.912147 783.764797 352.693357 709.475686 363.287226 703.065837 374.712497 707.838612C381.330477 710.603196 388.053308 713.173769 394.835279 715.53319L407.314641 719.87471 410.490432 732.700371 443.437389 865.758996 419.771153 847.238095 616.327194 847.238095 592.477417 866.557526 621.325088 730.62796 624.105103 717.528597 636.651202 712.847021C646.841886 709.044368 656.865493 704.767605 666.627682 700.056896L678.796045 694.1850959999999 690.225485 701.390303 803.674639 772.909532 773.791902 775.942467 914.162801 641.245167 910.479401 671.93453 834.210227 552.18633 827.217813 541.207727 832.449542 529.289143C836.047972 521.091433 839.325363 512.718893 842.252943 504.24713L846.63933 491.553911 859.712006 488.47766 994.034289 456.869065 975.238095 480.601771 975.238095 288.95183999999995 994.798163 312.85141999999996 852.982818 284.24525000000006 840.250379 281.67693699999995 835.279123 269.67702599999996C832.31875 262.53110200000003 829.086927 255.442899 825.606018 248.46171700000002ZM857.803703 260.34567000000004L862.624587 236.44609100000002 1004.439932 265.05226000000005 1024 268.99780499999997 1024 288.95183999999995 1024 480.601771 1024 499.911373 1005.203806 504.334475 870.881523 535.943072 865.296766 512.210366 888.340587 520.1736020000001C884.98377 529.887479 881.22675 539.4853009999999 877.099219 548.888369L854.774381 539.088755 875.338534 525.991181 951.607706 645.739381 962.34231 662.593495 947.924307 676.4287449999999 807.553406 811.126044 793.797813 824.325656 777.670669 814.158979 664.221513 742.63975 677.223499 722.015027 687.819315 743.973158C676.702449 749.337561 665.295885 754.20439 653.698526 758.531943L645.174865 735.689482 669.02464 740.751004 640.176969 876.68057 636.0769 896 616.327194 896 419.771153 896 400.690923 896 396.104919 877.479099 363.157965 744.420473 386.824198 738.560422 378.813118 761.5876539999999C371.096704 758.903145 363.448934 755.978908 355.916838 752.832462L365.314667 730.3355369999999 377.935979 751.195387 255.154767 825.484498 238.88953 835.325826 225.379878 821.950511 87.219113 685.163575 72.972426 671.058551 84.058966 654.355008 157.473798 543.7444820000001 177.787526 557.227187 156.044514 568.257702C151.336434 558.9772800000001 146.99905 549.4902569999999 143.067323 539.8715030000001L165.635683 530.6465410000001 160.050276 554.379093 18.795545 521.135083 0 516.71159 0 497.40253 0 305.75259900000003 0 285.798133 19.560572 281.85291700000005 154.441241 254.64853300000004 159.261622 278.54821300000003 136.256342 270.47430999999995C139.682853 260.71102099999996 143.513008 251.06981800000005 147.71909 241.62222099999997L169.992425 251.53833799999995 149.333613 264.486093 71.392628 140.12722099999996 60.94464 123.45691499999998 75.031143 109.72265200000004 214.014438-25.785293000000024 227.881289-39.30539299999998 244.18813-28.856971000000044 364.008004 47.91623000000004 350.854609 68.44472299999995 340.519036 46.36290299999996C348.675428 42.54523700000004 356.968563 38.99700299999995 365.342891 35.74218900000005L374.17527 58.46706300000005 350.509022 52.60706800000003 384.606182-85.09809099999995 389.192156-103.61904600000003 408.272431-103.61904600000003 604.846304-103.61904900000002 624.595936-103.61904900000002 628.696062-84.29970600000001 656.615319 47.25281700000005 632.765562 52.31442800000002 640.489184 29.189193000000046C649.912247 32.336411999999996 659.243565 35.84280100000001 668.413638 39.68177300000002L658.998519 62.171469 646.519381 41.22625500000004 774.081971-34.77542200000005 790.172006-44.361850000000004 803.581897-31.286545000000046 942.565193 104.22900500000003 957.136469 118.43671900000004 945.761519 135.31249100000002 867.642208 251.20958700000006 847.425094 237.58243800000002 869.244171 226.70315900000003C873.230259 234.69750599999998 876.932843 242.81820200000004 880.328282 251.014315L857.803703 260.34567000000004ZM731.428572 396.190477C731.428572 510.644915 638.644915 603.428572 524.190477 603.428572 409.736036 603.428572 316.952382 510.644915 316.952382 396.190477 316.952382 281.736036 409.736036 188.95238199999994 524.190477 188.95238199999994 553.504879 188.95238199999994 582.005801 195.05711099999996 608.253005 206.71738000000005 620.558583 212.18411100000003 626.102566 226.591411 620.635836 238.89698999999996 615.169107 251.20256600000005 600.761807 256.74654899999996 588.456228 251.27982099999997 568.411953 242.37518899999998 546.651767 237.71428500000002 524.190477 237.71428500000002 436.666494 237.71428500000002 365.714285 308.66649399999994 365.714285 396.190477 365.714285 483.71446 436.666494 554.666667 524.190477 554.666667 611.71446 554.666667 682.666667 483.71446 682.666667 396.190477 682.666667 384.625745 681.431994 373.23760000000004 679.007782 362.15275499999996 676.130985 348.998426 684.462569 336.00262599999996 697.616898 333.12582799999996 710.77123 330.24902999999995 723.767027 338.58061399999997 726.643825 351.73494400000004 729.815238 366.23641799999996 731.428572 381.117165 731.428572 396.190477Z"  horiz-adv-x="1024" />

    
    <glyph glyph-name="wode-copy" unicode="&#59254;" d="M875.507-40.25800000000004H124.998c-19.417 0-38.836 9.709-51.458 24.272l-0.97 0.97c-12.622 17.478-16.506 37.867-11.652 56.313 39.808 201.949 206.804 355.352 405.838 371.857 4.855 0.97 8.738 1.941 12.622 1.941h36.895l-4.855-48.545H492c-7.767 0-11.651 0-17.476-1.94h-2.912c-179.62-12.624-330.108-150.493-365.062-333.993-0.97-4.855-0.97-11.652 3.883-16.506l0.97-1.941c2.915-3.884 7.77-5.827 13.594-5.827h751.48c5.825 0 10.68 1.942 13.592 5.827 4.855 5.825 5.825 11.65 4.855 18.447-22.33 120.392-95.15 222.336-198.064 280.59l-0.97 0.971c-7.768 4.856-17.477 9.71-26.215 14.564-2.913 1.942-5.826 2.912-8.738 4.854l-13.593 5.826 19.418 43.69 13.592-5.825c9.709-3.883 19.419-9.708 28.157-13.592l11.65-5.826C836.67 289.847 917.254 175.28200000000004 943.47 41.29600000000005c4.854-19.418 0-39.807-14.563-57.283-13.593-15.534-33.982-24.272-53.4-24.272zM505.593 381.11400000000003c-122.334 0-223.308 100.973-223.308 223.307S383.259 827.73 505.593 827.73 728.9 726.755 728.9 604.422 626.956 381.11400000000003 505.594 381.11400000000003z m0 411.663c-104.858 0-188.356-84.469-188.356-188.356s84.47-188.355 188.356-188.355 188.355 84.47 188.355 188.355-84.47 188.356-188.355 188.356zM505.593 376.26c-126.218 0-228.163 101.944-228.163 228.161S379.375 832.585 505.593 832.585 733.755 730.639 733.755 604.4200000000001 630.839 376.26 505.593 376.26z m0 446.615c-120.392 0-218.454-98.061-218.454-218.454s98.062-218.453 218.454-218.453 218.453 98.062 218.453 218.453-98.06 218.454-218.453 218.454z m0-411.663c-106.8 0-193.21 86.41-193.21 193.21s86.41 193.21 193.21 193.21c106.8 0 193.21-86.41 193.21-193.21s-87.382-193.21-193.21-193.21z m0 376.71c-100.974 0-183.501-82.527-183.501-183.5 0-100.975 82.527-183.501 183.5-183.501s183.501 82.528 183.501 183.5c0 100.974-82.527 183.501-183.5 183.501z m-298.068-667.01c-1.941 0-4.854 0.97-6.796 1.941-6.796 3.884-9.71 12.622-5.826 19.419 85.44 166.025 270.883 197.093 278.65 198.064 7.768 0.97 15.534-3.884 16.506-11.651 0.97-7.768-3.884-15.534-11.652-16.506-1.94 0-178.646-30.097-257.29-182.529-2.911-5.826-7.767-8.738-13.592-8.738z m-33.01-84.47c-7.767 0-14.564 6.797-14.564 14.565 0 28.156 18.447 58.254 21.36 61.167 3.883 6.796 13.592 8.738 20.39 4.853 6.795-3.882 8.737-13.591 4.853-20.388-4.854-6.796-16.505-29.128-16.505-45.632-0.97-7.768-6.797-14.564-15.535-14.564z"  horiz-adv-x="1024" />

    


  </font>
</defs>
</svg>
